PathFileType	4	(X/Y/Z)	 s09c0301.trc
DataRate	CameraRate	NumFrames	NumMarkers	Units	OrigDataRate	OrigDataStartFrame	OrigNumFrames
200	200	6	50	mm	200	751	2000
Frame#	Time	racr			lacr			c7			jug			rlel			rdr			llel			ldr			s2			lic			ric			lasi			rasi			rpsi			lpsi			rgt			lgt			rth1			rth2			rth3			rth4			rlfc			rmfc			rsh1			rsh2			rsh3			rsh4			rlmal			rmmal			rcal			rtoe			rmt5			lth1			lth2			lth4			lth3			llfc			lmfc			llmal			lmmal			lcal			lmt5			lsh1			lsh2			lsh3			lsh4			ltoe			SBIKE			LBIKE			RBIKE			
		X1	Y1	Z1	X2	Y2	Z2	X3	Y3	Z3	X4	Y4	Z4	X5	Y5	Z5	X6	Y6	Z6	X7	Y7	Z7	X8	Y8	Z8	X9	Y9	Z9	X10	Y10	Z10	X11	Y11	Z11	X12	Y12	Z12	X13	Y13	Z13	X14	Y14	Z14	X15	Y15	Z15	X16	Y16	Z16	X17	Y17	Z17	X18	Y18	Z18	X19	Y19	Z19	X20	Y20	Z20	X21	Y21	Z21	X22	Y22	Z22	X23	Y23	Z23	X24	Y24	Z24	X25	Y25	Z25	X26	Y26	Z26	X27	Y27	Z27	X28	Y28	Z28	X29	Y29	Z29	X30	Y30	Z30	X31	Y31	Z31	X32	Y32	Z32	X33	Y33	Z33	X34	Y34	Z34	X35	Y35	Z35	X36	Y36	Z36	X37	Y37	Z37	X38	Y38	Z38	X39	Y39	Z39	X40	Y40	Z40	X41	Y41	Z41	X42	Y42	Z42	X43	Y43	Z43	X44	Y44	Z44	X45	Y45	Z45	X46	Y46	Z46	X47	Y47	Z47	X48	Y48	Z48	X49	Y49	Z49	X50	Y50	Z50	
751	3.7550	713.252527	1359.396787	-95.867565	739.139171	1327.170490	-445.403043	717.424811	1399.582152	-270.246837	716.895837	1264.412551	-265.480969	639.304041	1110.160056	-27.210371	725.092673	870.690286	-58.827744	597.440155	1089.118468	-522.224874	714.984181	884.162840	-443.728222	244.598407	1180.732719	-253.890655	382.216818	1164.201580	-403.969885	397.984294	1143.844472	-116.332846	411.208844	1102.712821	-380.673751	422.598142	1083.177816	-145.011435	283.123149	1202.289207	-191.926531	273.215956	1218.748169	-302.378621	328.934480	1002.507477	-80.929452	335.699458	1053.858234	-454.658825	353.341200	876.347045	-88.040189	387.945410	795.490713	-91.194421	371.212700	708.437142	-97.152139	418.963055	798.321188	-111.068594	373.819713	613.696187	-121.545010	355.697977	590.007754	-219.102745	322.863363	526.717075	-86.939439	326.947180	437.148042	-93.215575	286.497488	359.632507	-88.769061	353.329463	432.773162	-122.412323	258.120229	262.689660	-84.180691	266.003157	265.264886	-159.855327	181.460694	267.844839	-117.009981	394.640771	111.599523	-129.615022	319.779322	143.853757	-62.716776	436.607033	960.229509	-455.890737	514.155769	925.204206	-448.482767	536.054826	950.729774	-432.670165	566.420643	851.407622	-449.816305	604.686981	763.382230	-431.013051	613.533063	748.118959	-330.307192	271.240756	607.631821	-414.539512	294.407571	609.563322	-342.387578	191.607906	626.215311	-373.738319	301.446783	490.698424	-432.654250	515.606376	720.384541	-444.752859	448.037533	667.451865	-428.987478	360.169541	654.569228	-423.865770	461.791506	646.114654	-399.508034	384.150889	451.379369	-361.558083	-64.721164	853.448890	-238.404806	20.707125	85.011472	-441.966735	21.180412	84.072610	-43.736299	
752	3.7600	715.013368	1359.180200	-98.171397	735.851720	1329.833026	-448.607555	716.661526	1401.043451	-272.012954	716.554070	1265.936866	-268.534891	641.529420	1110.293098	-27.858459	725.254790	870.490360	-58.941835	594.840598	1089.237352	-521.842730	715.873473	885.198060	-444.160269	245.816155	1180.136506	-251.816062	379.838692	1166.352813	-402.313588	400.343702	1143.478961	-115.647615	409.708144	1104.650271	-380.805780	424.350847	1083.213697	-145.034578	286.013168	1201.469188	-190.405049	274.408586	1218.012252	-300.963870	331.092322	1002.609312	-80.165403	334.283169	1056.489391	-452.970692	354.355128	876.301625	-87.871883	388.455393	795.187928	-91.529112	371.062579	708.290546	-97.151880	419.577769	798.082214	-111.445501	372.196017	613.343080	-120.962210	353.293674	590.173287	-218.711681	320.448032	526.479282	-86.483335	323.019374	436.835693	-93.094769	281.261903	360.170839	-88.620858	349.229410	432.206807	-122.340702	251.343325	263.643835	-84.058268	259.376644	265.805833	-159.836869	175.304575	269.882878	-116.662798	384.935524	109.662947	-129.431577	310.604988	143.602585	-62.699447	436.997693	963.850379	-454.671362	514.992033	929.896041	-447.082506	537.455087	955.653409	-430.281552	568.356188	856.891648	-448.443861	608.682564	769.704942	-429.585962	617.692698	753.876001	-328.907587	277.884658	607.423289	-414.255358	300.886827	609.462330	-341.907804	197.383874	624.138054	-373.754051	310.481626	491.273450	-432.709131	520.235508	725.175435	-443.526616	453.602159	670.949628	-428.288747	366.066914	656.373212	-423.232901	467.747008	649.536013	-399.037134	394.087489	453.732580	-361.654554	-64.684592	853.495786	-238.337307	20.715164	85.043781	-441.956563	21.184230	84.098639	-43.733691	
753	3.7650	716.711909	1359.118021	-100.574781	732.433398	1332.313151	-451.887817	715.821091	1402.283228	-274.138177	716.086096	1267.255695	-271.775517	643.589774	1110.393138	-28.698877	725.335707	870.300712	-59.068997	592.279075	1089.594746	-521.812388	715.413183	886.035915	-443.374210	245.720299	1180.735479	-248.414617	377.552439	1168.510200	-401.281139	402.777470	1143.228496	-114.942537	408.260076	1106.580566	-381.001049	425.940591	1083.316221	-145.172600	286.934095	1201.774633	-187.441265	273.837443	1218.966645	-297.413289	332.983094	1002.812245	-79.326233	332.720116	1059.140253	-451.657356	355.346472	876.177530	-87.724341	389.264417	794.941054	-91.863544	371.302357	708.202898	-96.801874	420.021573	797.772688	-112.189234	371.370742	612.781429	-120.306184	352.215457	589.680119	-218.237421	318.426569	526.422704	-85.987543	319.099105	436.836558	-92.858123	275.827554	361.015217	-88.442369	345.083616	431.680834	-122.250190	243.927147	264.923685	-83.886961	252.056795	266.920909	-159.780740	168.670486	272.529882	-116.474282	375.234442	108.732146	-129.174057	301.443814	143.726406	-62.475397	437.270336	967.338170	-453.323481	515.686898	934.410466	-445.668584	537.796070	960.473406	-428.773540	570.054193	862.193006	-446.790652	612.316970	775.701657	-428.164590	621.498850	759.328981	-327.199086	284.577483	606.491448	-413.930343	307.247626	609.205384	-341.536185	203.400339	621.463387	-373.653493	319.608207	491.182342	-432.818053	524.680018	729.608782	-442.233644	459.132178	673.888097	-427.470617	371.686411	657.892552	-422.751220	473.702431	652.531314	-398.425488	403.897144	455.415095	-361.705295	-64.661446	853.512068	-238.287877	20.722732	85.084372	-441.973149	21.170175	84.106039	-43.734941	
754	3.7700	718.274203	1358.793774	-102.904239	728.902976	1334.668796	-455.206010	714.702939	1403.830412	-274.910902	715.503811	1268.488350	-275.098006	645.563914	1110.572581	-29.627600	725.450722	870.087548	-59.217000	589.577899	1089.733145	-521.455933	714.739922	887.007218	-442.417772	245.355804	1181.505524	-244.776333	375.300746	1170.642848	-400.087517	405.195507	1143.151511	-113.988156	406.843261	1108.374129	-381.312336	427.372164	1083.374998	-145.228643	288.187265	1202.927965	-184.399530	273.615694	1219.708590	-294.252958	334.582163	1002.965801	-78.552694	331.345077	1061.724600	-450.152618	356.655309	876.063563	-87.331189	390.366596	794.718375	-92.130157	372.343327	708.042049	-96.879696	420.625947	797.501655	-112.956605	371.017401	612.362891	-119.920404	351.453026	589.341055	-217.662183	316.635074	526.608089	-85.516584	315.235077	436.980370	-92.671420	270.285749	362.129343	-88.281689	341.080502	431.336473	-122.081248	236.247018	266.600172	-83.731434	244.501592	268.395218	-159.799138	161.122483	275.731619	-117.066246	365.467134	108.617059	-128.944553	292.363165	144.624568	-61.984140	437.688158	970.815142	-451.733570	516.226358	938.702000	-444.131425	537.938448	965.051179	-427.318772	571.494648	867.146107	-445.164376	615.806010	781.480444	-426.623926	625.166748	764.476574	-325.590484	291.224560	605.064174	-413.595275	313.491464	608.207148	-341.085501	209.459281	618.123625	-373.472695	328.625468	490.695452	-432.883739	528.905813	733.553180	-440.847195	464.516588	676.314609	-426.590290	377.508705	658.478148	-421.977792	479.475964	655.156578	-397.733901	413.525538	456.777565	-361.807997	-64.656973	853.523060	-238.245918	20.705644	85.107936	-441.956479	21.180112	84.109135	-43.738982	
755	3.7750	719.777124	1358.629931	-105.221189	725.012432	1336.925910	-458.416082	713.539371	1405.403674	-276.188954	715.526935	1269.704313	-278.168053	647.448964	1110.746643	-30.687107	725.469534	869.924350	-59.048134	586.209528	1089.934831	-520.935408	714.430723	888.178194	-442.406594	245.461217	1182.480879	-240.660792	373.025469	1173.071468	-399.208651	406.644018	1143.013114	-114.583363	405.542758	1110.001648	-381.474763	428.504052	1083.410894	-145.434543	288.317961	1203.334005	-182.195889	273.125318	1220.651152	-291.156244	335.993437	1003.078246	-77.807011	330.147664	1064.769973	-449.191261	358.203734	875.920963	-86.787173	391.813329	794.770432	-92.144182	373.800412	707.949113	-96.761859	421.724585	797.314191	-113.579554	371.602189	611.735576	-119.582499	351.069557	589.285966	-217.119582	315.195535	526.931165	-85.265846	311.578492	437.396680	-92.410163	264.750790	363.667804	-88.096516	337.225302	431.086600	-121.965246	228.384994	268.669044	-83.546481	236.914583	270.250346	-159.815575	153.300388	278.605884	-117.102647	355.718162	109.039375	-128.785637	282.591841	146.004315	-62.427623	437.712466	973.997527	-450.421082	516.579569	942.761693	-442.619452	537.929213	969.313017	-425.684801	572.578266	871.752550	-443.487367	618.765315	786.858092	-424.889050	629.136463	769.391241	-324.328923	297.797611	602.978051	-413.290817	319.455086	606.508230	-340.867827	215.463407	614.235134	-373.433924	337.609934	489.566992	-432.900697	532.927013	736.931085	-439.364925	469.704798	678.236075	-425.560204	383.092602	658.516619	-421.286955	485.115019	657.182190	-396.881366	423.177422	457.434459	-361.883515	-64.666240	853.544229	-238.234176	20.696850	85.114981	-441.976731	21.166681	84.129804	-43.739926	
756	3.7800	721.114626	1358.331642	-107.923370	721.275139	1338.780884	-461.703705	712.527364	1406.452156	-277.994663	714.690332	1270.788834	-281.506504	649.177328	1111.000057	-31.697409	725.629708	869.753225	-58.568520	582.634208	1090.015347	-520.212514	714.070857	889.293615	-442.493838	245.363594	1183.432400	-237.651473	370.896455	1174.569621	-398.363177	407.756303	1142.827595	-114.956309	404.241104	1111.551401	-381.701832	429.448408	1083.392393	-145.598029	290.001813	1204.267474	-180.074240	272.370770	1221.698538	-288.160494	337.153129	1003.295266	-77.223287	329.391230	1067.430761	-447.890092	359.831276	875.708786	-86.359414	393.687750	794.476078	-92.293285	376.325629	707.646806	-96.819124	423.172461	797.361150	-114.130378	372.852071	611.024920	-119.283864	351.354497	589.251272	-216.376747	314.079099	527.391014	-85.017943	308.143792	438.023247	-92.175885	259.455063	365.567887	-87.908962	333.657018	431.239100	-121.682171	220.382322	271.113707	-83.362152	229.308156	272.756442	-159.776528	145.188053	281.544679	-117.539971	346.191662	110.254264	-128.563174	273.326350	147.962731	-62.298299	437.668042	977.337222	-449.918425	516.656089	946.508050	-441.149667	537.719963	973.196497	-424.073053	573.283943	876.256909	-441.861443	621.505280	791.857466	-423.687756	632.894254	774.098925	-321.661774	304.178316	600.296932	-413.011639	325.404317	604.443280	-340.363042	221.217682	609.616566	-373.374640	346.336755	488.118150	-432.898152	536.491272	739.900790	-438.398469	474.689000	679.500217	-424.521684	388.383374	657.847735	-420.717647	490.440435	658.647268	-395.883493	432.601371	457.684164	-362.020218	-64.648802	853.551211	-238.219053	20.688696	85.146305	-441.969651	21.177348	84.124608	-43.737497	
